ISO-10303-21;
HEADER;
/* Generated by software containing ST-Developer
 * from STEP Tools, Inc. (www.steptools.com)
 */

FILE_DESCRIPTION(
/* description */ (''),
/* implementation_level */ '2;1');

FILE_NAME(
/* name */ 'Red Box.step',
/* time_stamp */ '2026-08-18T16:08:04+09:00',
/* author */ (''),
/* organization */ (''),
/* preprocessor_version */ 'ST-DEVELOPER v20.1',
/* originating_system */ 'Autodesk Translation Framework v15.8.0.0',
/* authorisation */ '');

FILE_SCHEMA (('AUTOMOTIVE_DESIGN { 1 0 10303 214 3 1 1 }'));
ENDSEC;

DATA;
#10=MECHANICAL_DESIGN_GEOMETRIC_PRESENTATION_REPRESENTATION('',(#13),#651);
#11=SHAPE_REPRESENTATION_RELATIONSHIP('SRR','None',#658,#12);
#12=ADVANCED_BREP_SHAPE_REPRESENTATION('',(#14),#650);
#13=STYLED_ITEM('',(#667),#14);
#14=MANIFOLD_SOLID_BREP('Body1',#359);
#15=PLANE('',#413);
#16=PLANE('',#414);
#17=PLANE('',#416);
#18=PLANE('',#420);
#19=PLANE('',#421);
#20=PLANE('',#422);
#21=LINE('',#565,#45);
#22=LINE('',#566,#46);
#23=LINE('',#582,#47);
#24=LINE('',#583,#48);
#25=LINE('',#588,#49);
#26=LINE('',#589,#50);
#27=LINE('',#595,#51);
#28=LINE('',#596,#52);
#29=LINE('',#598,#53);
#30=LINE('',#599,#54);
#31=LINE('',#604,#55);
#32=LINE('',#605,#56);
#33=LINE('',#618,#57);
#34=LINE('',#619,#58);
#35=LINE('',#628,#59);
#36=LINE('',#629,#60);
#37=LINE('',#631,#61);
#38=LINE('',#633,#62);
#39=LINE('',#635,#63);
#40=LINE('',#638,#64);
#41=LINE('',#639,#65);
#42=LINE('',#641,#66);
#43=LINE('',#643,#67);
#44=LINE('',#644,#68);
#45=VECTOR('',#443,1.);
#46=VECTOR('',#444,1.);
#47=VECTOR('',#463,1.);
#48=VECTOR('',#464,1.);
#49=VECTOR('',#469,1.);
#50=VECTOR('',#470,1.);
#51=VECTOR('',#479,1.);
#52=VECTOR('',#480,1.);
#53=VECTOR('',#483,1.);
#54=VECTOR('',#484,1.);
#55=VECTOR('',#489,1.);
#56=VECTOR('',#490,1.);
#57=VECTOR('',#507,1.);
#58=VECTOR('',#508,1.);
#59=VECTOR('',#519,1.);
#60=VECTOR('',#520,1.);
#61=VECTOR('',#523,1.);
#62=VECTOR('',#526,1.);
#63=VECTOR('',#529,1.);
#64=VECTOR('',#534,1.);
#65=VECTOR('',#535,1.);
#66=VECTOR('',#538,1.);
#67=VECTOR('',#541,1.);
#68=VECTOR('',#542,1.);
#69=CYLINDRICAL_SURFACE('',#381,0.1);
#70=CYLINDRICAL_SURFACE('',#390,0.1);
#71=CYLINDRICAL_SURFACE('',#391,0.1);
#72=CYLINDRICAL_SURFACE('',#396,0.1);
#73=CYLINDRICAL_SURFACE('',#397,0.1);
#74=CYLINDRICAL_SURFACE('',#398,0.1);
#75=CYLINDRICAL_SURFACE('',#407,0.1);
#76=CYLINDRICAL_SURFACE('',#412,0.1);
#77=CYLINDRICAL_SURFACE('',#415,0.1);
#78=CYLINDRICAL_SURFACE('',#417,0.1);
#79=CYLINDRICAL_SURFACE('',#418,0.1);
#80=CYLINDRICAL_SURFACE('',#419,0.1);
#81=FACE_OUTER_BOUND('',#107,.T.);
#82=FACE_OUTER_BOUND('',#108,.T.);
#83=FACE_OUTER_BOUND('',#109,.T.);
#84=FACE_OUTER_BOUND('',#110,.T.);
#85=FACE_OUTER_BOUND('',#111,.T.);
#86=FACE_OUTER_BOUND('',#112,.T.);
#87=FACE_OUTER_BOUND('',#113,.T.);
#88=FACE_OUTER_BOUND('',#114,.T.);
#89=FACE_OUTER_BOUND('',#115,.T.);
#90=FACE_OUTER_BOUND('',#116,.T.);
#91=FACE_OUTER_BOUND('',#117,.T.);
#92=FACE_OUTER_BOUND('',#118,.T.);
#93=FACE_OUTER_BOUND('',#119,.T.);
#94=FACE_OUTER_BOUND('',#120,.T.);
#95=FACE_OUTER_BOUND('',#121,.T.);
#96=FACE_OUTER_BOUND('',#122,.T.);
#97=FACE_OUTER_BOUND('',#123,.T.);
#98=FACE_OUTER_BOUND('',#124,.T.);
#99=FACE_OUTER_BOUND('',#125,.T.);
#100=FACE_OUTER_BOUND('',#126,.T.);
#101=FACE_OUTER_BOUND('',#127,.T.);
#102=FACE_OUTER_BOUND('',#128,.T.);
#103=FACE_OUTER_BOUND('',#129,.T.);
#104=FACE_OUTER_BOUND('',#130,.T.);
#105=FACE_OUTER_BOUND('',#131,.T.);
#106=FACE_OUTER_BOUND('',#132,.T.);
#107=EDGE_LOOP('',(#229,#230,#231));
#108=EDGE_LOOP('',(#232,#233,#234));
#109=EDGE_LOOP('',(#235,#236,#237,#238));
#110=EDGE_LOOP('',(#239,#240,#241));
#111=EDGE_LOOP('',(#242,#243,#244));
#112=EDGE_LOOP('',(#245,#246,#247,#248));
#113=EDGE_LOOP('',(#249,#250,#251,#252));
#114=EDGE_LOOP('',(#253,#254,#255));
#115=EDGE_LOOP('',(#256,#257,#258,#259));
#116=EDGE_LOOP('',(#260,#261,#262,#263));
#117=EDGE_LOOP('',(#264,#265,#266,#267));
#118=EDGE_LOOP('',(#268,#269,#270));
#119=EDGE_LOOP('',(#271,#272,#273));
#120=EDGE_LOOP('',(#274,#275,#276,#277));
#121=EDGE_LOOP('',(#278,#279,#280));
#122=EDGE_LOOP('',(#281,#282,#283,#284));
#123=EDGE_LOOP('',(#285,#286,#287,#288));
#124=EDGE_LOOP('',(#289,#290,#291,#292));
#125=EDGE_LOOP('',(#293,#294,#295,#296));
#126=EDGE_LOOP('',(#297,#298,#299,#300));
#127=EDGE_LOOP('',(#301,#302,#303,#304));
#128=EDGE_LOOP('',(#305,#306,#307,#308));
#129=EDGE_LOOP('',(#309,#310,#311,#312));
#130=EDGE_LOOP('',(#313,#314,#315,#316));
#131=EDGE_LOOP('',(#317,#318,#319,#320));
#132=EDGE_LOOP('',(#321,#322,#323,#324));
#133=CIRCLE('',#374,0.1);
#134=CIRCLE('',#375,0.1);
#135=CIRCLE('',#376,0.1);
#136=CIRCLE('',#378,0.1);
#137=CIRCLE('',#379,0.1);
#138=CIRCLE('',#380,0.1);
#139=CIRCLE('',#383,0.0999999999999996);
#140=CIRCLE('',#384,0.1);
#141=CIRCLE('',#385,0.1);
#142=CIRCLE('',#387,0.1);
#143=CIRCLE('',#388,0.1);
#144=CIRCLE('',#389,0.0999999999999996);
#145=CIRCLE('',#392,0.1);
#146=CIRCLE('',#394,0.1);
#147=CIRCLE('',#395,0.1);
#148=CIRCLE('',#399,0.1);
#149=CIRCLE('',#401,0.1);
#150=CIRCLE('',#402,0.1);
#151=CIRCLE('',#404,0.0999999999999999);
#152=CIRCLE('',#405,0.1);
#153=CIRCLE('',#406,0.1);
#154=CIRCLE('',#409,0.0999999999999999);
#155=CIRCLE('',#410,0.1);
#156=CIRCLE('',#411,0.1);
#157=VERTEX_POINT('',#551);
#158=VERTEX_POINT('',#552);
#159=VERTEX_POINT('',#554);
#160=VERTEX_POINT('',#558);
#161=VERTEX_POINT('',#559);
#162=VERTEX_POINT('',#561);
#163=VERTEX_POINT('',#568);
#164=VERTEX_POINT('',#569);
#165=VERTEX_POINT('',#571);
#166=VERTEX_POINT('',#575);
#167=VERTEX_POINT('',#576);
#168=VERTEX_POINT('',#578);
#169=VERTEX_POINT('',#585);
#170=VERTEX_POINT('',#586);
#171=VERTEX_POINT('',#591);
#172=VERTEX_POINT('',#601);
#173=VERTEX_POINT('',#602);
#174=VERTEX_POINT('',#607);
#175=VERTEX_POINT('',#611);
#176=VERTEX_POINT('',#612);
#177=VERTEX_POINT('',#614);
#178=VERTEX_POINT('',#621);
#179=VERTEX_POINT('',#622);
#180=VERTEX_POINT('',#624);
#181=EDGE_CURVE('',#157,#158,#133,.F.);
#182=EDGE_CURVE('',#159,#157,#134,.F.);
#183=EDGE_CURVE('',#158,#159,#135,.F.);
#184=EDGE_CURVE('',#160,#161,#136,.F.);
#185=EDGE_CURVE('',#162,#160,#137,.F.);
#186=EDGE_CURVE('',#161,#162,#138,.F.);
#187=EDGE_CURVE('',#159,#162,#21,.T.);
#188=EDGE_CURVE('',#160,#158,#22,.T.);
#189=EDGE_CURVE('',#163,#164,#139,.F.);
#190=EDGE_CURVE('',#165,#163,#140,.F.);
#191=EDGE_CURVE('',#164,#165,#141,.F.);
#192=EDGE_CURVE('',#166,#167,#142,.F.);
#193=EDGE_CURVE('',#168,#166,#143,.F.);
#194=EDGE_CURVE('',#167,#168,#144,.F.);
#195=EDGE_CURVE('',#166,#165,#23,.T.);
#196=EDGE_CURVE('',#163,#168,#24,.T.);
#197=EDGE_CURVE('',#169,#170,#145,.T.);
#198=EDGE_CURVE('',#170,#167,#25,.T.);
#199=EDGE_CURVE('',#168,#169,#26,.T.);
#200=EDGE_CURVE('',#169,#171,#146,.T.);
#201=EDGE_CURVE('',#171,#170,#147,.T.);
#202=EDGE_CURVE('',#162,#166,#27,.T.);
#203=EDGE_CURVE('',#167,#161,#28,.T.);
#204=EDGE_CURVE('',#165,#159,#29,.T.);
#205=EDGE_CURVE('',#157,#164,#30,.T.);
#206=EDGE_CURVE('',#172,#173,#148,.T.);
#207=EDGE_CURVE('',#173,#163,#31,.T.);
#208=EDGE_CURVE('',#164,#172,#32,.T.);
#209=EDGE_CURVE('',#172,#174,#149,.T.);
#210=EDGE_CURVE('',#174,#173,#150,.T.);
#211=EDGE_CURVE('',#175,#176,#151,.T.);
#212=EDGE_CURVE('',#176,#177,#152,.T.);
#213=EDGE_CURVE('',#177,#175,#153,.T.);
#214=EDGE_CURVE('',#175,#160,#33,.T.);
#215=EDGE_CURVE('',#161,#176,#34,.T.);
#216=EDGE_CURVE('',#178,#179,#154,.T.);
#217=EDGE_CURVE('',#179,#180,#155,.T.);
#218=EDGE_CURVE('',#180,#178,#156,.T.);
#219=EDGE_CURVE('',#178,#157,#35,.T.);
#220=EDGE_CURVE('',#158,#179,#36,.T.);
#221=EDGE_CURVE('',#169,#173,#37,.T.);
#222=EDGE_CURVE('',#172,#178,#38,.T.);
#223=EDGE_CURVE('',#180,#174,#39,.T.);
#224=EDGE_CURVE('',#177,#180,#40,.T.);
#225=EDGE_CURVE('',#179,#175,#41,.T.);
#226=EDGE_CURVE('',#174,#171,#42,.T.);
#227=EDGE_CURVE('',#171,#177,#43,.T.);
#228=EDGE_CURVE('',#176,#170,#44,.T.);
#229=ORIENTED_EDGE('',*,*,#181,.F.);
#230=ORIENTED_EDGE('',*,*,#182,.F.);
#231=ORIENTED_EDGE('',*,*,#183,.F.);
#232=ORIENTED_EDGE('',*,*,#184,.F.);
#233=ORIENTED_EDGE('',*,*,#185,.F.);
#234=ORIENTED_EDGE('',*,*,#186,.F.);
#235=ORIENTED_EDGE('',*,*,#183,.T.);
#236=ORIENTED_EDGE('',*,*,#187,.T.);
#237=ORIENTED_EDGE('',*,*,#185,.T.);
#238=ORIENTED_EDGE('',*,*,#188,.T.);
#239=ORIENTED_EDGE('',*,*,#189,.F.);
#240=ORIENTED_EDGE('',*,*,#190,.F.);
#241=ORIENTED_EDGE('',*,*,#191,.F.);
#242=ORIENTED_EDGE('',*,*,#192,.F.);
#243=ORIENTED_EDGE('',*,*,#193,.F.);
#244=ORIENTED_EDGE('',*,*,#194,.F.);
#245=ORIENTED_EDGE('',*,*,#193,.T.);
#246=ORIENTED_EDGE('',*,*,#195,.T.);
#247=ORIENTED_EDGE('',*,*,#190,.T.);
#248=ORIENTED_EDGE('',*,*,#196,.T.);
#249=ORIENTED_EDGE('',*,*,#197,.T.);
#250=ORIENTED_EDGE('',*,*,#198,.T.);
#251=ORIENTED_EDGE('',*,*,#194,.T.);
#252=ORIENTED_EDGE('',*,*,#199,.T.);
#253=ORIENTED_EDGE('',*,*,#197,.F.);
#254=ORIENTED_EDGE('',*,*,#200,.T.);
#255=ORIENTED_EDGE('',*,*,#201,.T.);
#256=ORIENTED_EDGE('',*,*,#186,.T.);
#257=ORIENTED_EDGE('',*,*,#202,.T.);
#258=ORIENTED_EDGE('',*,*,#192,.T.);
#259=ORIENTED_EDGE('',*,*,#203,.T.);
#260=ORIENTED_EDGE('',*,*,#191,.T.);
#261=ORIENTED_EDGE('',*,*,#204,.T.);
#262=ORIENTED_EDGE('',*,*,#182,.T.);
#263=ORIENTED_EDGE('',*,*,#205,.T.);
#264=ORIENTED_EDGE('',*,*,#206,.T.);
#265=ORIENTED_EDGE('',*,*,#207,.T.);
#266=ORIENTED_EDGE('',*,*,#189,.T.);
#267=ORIENTED_EDGE('',*,*,#208,.T.);
#268=ORIENTED_EDGE('',*,*,#206,.F.);
#269=ORIENTED_EDGE('',*,*,#209,.T.);
#270=ORIENTED_EDGE('',*,*,#210,.T.);
#271=ORIENTED_EDGE('',*,*,#211,.T.);
#272=ORIENTED_EDGE('',*,*,#212,.T.);
#273=ORIENTED_EDGE('',*,*,#213,.T.);
#274=ORIENTED_EDGE('',*,*,#211,.F.);
#275=ORIENTED_EDGE('',*,*,#214,.T.);
#276=ORIENTED_EDGE('',*,*,#184,.T.);
#277=ORIENTED_EDGE('',*,*,#215,.T.);
#278=ORIENTED_EDGE('',*,*,#216,.T.);
#279=ORIENTED_EDGE('',*,*,#217,.T.);
#280=ORIENTED_EDGE('',*,*,#218,.T.);
#281=ORIENTED_EDGE('',*,*,#216,.F.);
#282=ORIENTED_EDGE('',*,*,#219,.T.);
#283=ORIENTED_EDGE('',*,*,#181,.T.);
#284=ORIENTED_EDGE('',*,*,#220,.T.);
#285=ORIENTED_EDGE('',*,*,#199,.F.);
#286=ORIENTED_EDGE('',*,*,#196,.F.);
#287=ORIENTED_EDGE('',*,*,#207,.F.);
#288=ORIENTED_EDGE('',*,*,#221,.F.);
#289=ORIENTED_EDGE('',*,*,#208,.F.);
#290=ORIENTED_EDGE('',*,*,#205,.F.);
#291=ORIENTED_EDGE('',*,*,#219,.F.);
#292=ORIENTED_EDGE('',*,*,#222,.F.);
#293=ORIENTED_EDGE('',*,*,#209,.F.);
#294=ORIENTED_EDGE('',*,*,#222,.T.);
#295=ORIENTED_EDGE('',*,*,#218,.F.);
#296=ORIENTED_EDGE('',*,*,#223,.T.);
#297=ORIENTED_EDGE('',*,*,#195,.F.);
#298=ORIENTED_EDGE('',*,*,#202,.F.);
#299=ORIENTED_EDGE('',*,*,#187,.F.);
#300=ORIENTED_EDGE('',*,*,#204,.F.);
#301=ORIENTED_EDGE('',*,*,#213,.F.);
#302=ORIENTED_EDGE('',*,*,#224,.T.);
#303=ORIENTED_EDGE('',*,*,#217,.F.);
#304=ORIENTED_EDGE('',*,*,#225,.T.);
#305=ORIENTED_EDGE('',*,*,#200,.F.);
#306=ORIENTED_EDGE('',*,*,#221,.T.);
#307=ORIENTED_EDGE('',*,*,#210,.F.);
#308=ORIENTED_EDGE('',*,*,#226,.T.);
#309=ORIENTED_EDGE('',*,*,#201,.F.);
#310=ORIENTED_EDGE('',*,*,#227,.T.);
#311=ORIENTED_EDGE('',*,*,#212,.F.);
#312=ORIENTED_EDGE('',*,*,#228,.T.);
#313=ORIENTED_EDGE('',*,*,#198,.F.);
#314=ORIENTED_EDGE('',*,*,#228,.F.);
#315=ORIENTED_EDGE('',*,*,#215,.F.);
#316=ORIENTED_EDGE('',*,*,#203,.F.);
#317=ORIENTED_EDGE('',*,*,#214,.F.);
#318=ORIENTED_EDGE('',*,*,#225,.F.);
#319=ORIENTED_EDGE('',*,*,#220,.F.);
#320=ORIENTED_EDGE('',*,*,#188,.F.);
#321=ORIENTED_EDGE('',*,*,#224,.F.);
#322=ORIENTED_EDGE('',*,*,#227,.F.);
#323=ORIENTED_EDGE('',*,*,#226,.F.);
#324=ORIENTED_EDGE('',*,*,#223,.F.);
#325=SPHERICAL_SURFACE('',#373,0.1);
#326=SPHERICAL_SURFACE('',#377,0.1);
#327=SPHERICAL_SURFACE('',#382,0.1);
#328=SPHERICAL_SURFACE('',#386,0.1);
#329=SPHERICAL_SURFACE('',#393,0.1);
#330=SPHERICAL_SURFACE('',#400,0.1);
#331=SPHERICAL_SURFACE('',#403,0.1);
#332=SPHERICAL_SURFACE('',#408,0.1);
#333=ADVANCED_FACE('',(#81),#325,.T.);
#334=ADVANCED_FACE('',(#82),#326,.T.);
#335=ADVANCED_FACE('',(#83),#69,.T.);
#336=ADVANCED_FACE('',(#84),#327,.T.);
#337=ADVANCED_FACE('',(#85),#328,.T.);
#338=ADVANCED_FACE('',(#86),#70,.T.);
#339=ADVANCED_FACE('',(#87),#71,.T.);
#340=ADVANCED_FACE('',(#88),#329,.T.);
#341=ADVANCED_FACE('',(#89),#72,.T.);
#342=ADVANCED_FACE('',(#90),#73,.T.);
#343=ADVANCED_FACE('',(#91),#74,.T.);
#344=ADVANCED_FACE('',(#92),#330,.T.);
#345=ADVANCED_FACE('',(#93),#331,.T.);
#346=ADVANCED_FACE('',(#94),#75,.T.);
#347=ADVANCED_FACE('',(#95),#332,.T.);
#348=ADVANCED_FACE('',(#96),#76,.T.);
#349=ADVANCED_FACE('',(#97),#15,.T.);
#350=ADVANCED_FACE('',(#98),#16,.T.);
#351=ADVANCED_FACE('',(#99),#77,.T.);
#352=ADVANCED_FACE('',(#100),#17,.F.);
#353=ADVANCED_FACE('',(#101),#78,.T.);
#354=ADVANCED_FACE('',(#102),#79,.T.);
#355=ADVANCED_FACE('',(#103),#80,.T.);
#356=ADVANCED_FACE('',(#104),#18,.T.);
#357=ADVANCED_FACE('',(#105),#19,.T.);
#358=ADVANCED_FACE('',(#106),#20,.T.);
#359=CLOSED_SHELL('',(#333,#334,#335,#336,#337,#338,#339,#340,#341,#342,
#343,#344,#345,#346,#347,#348,#349,#350,#351,#352,#353,#354,#355,#356,#357,
#358));
#360=DERIVED_UNIT_ELEMENT(#362,1.);
#361=DERIVED_UNIT_ELEMENT(#653,-3.);
#362=(
MASS_UNIT()
NAMED_UNIT(*)
SI_UNIT(.KILO.,.GRAM.)
);
#363=DERIVED_UNIT((#360,#361));
#364=MEASURE_REPRESENTATION_ITEM('density measure',
POSITIVE_RATIO_MEASURE(7850.),#363);
#365=PROPERTY_DEFINITION_REPRESENTATION(#370,#367);
#366=PROPERTY_DEFINITION_REPRESENTATION(#371,#368);
#367=REPRESENTATION('material name',(#369),#650);
#368=REPRESENTATION('density',(#364),#650);
#369=DESCRIPTIVE_REPRESENTATION_ITEM('Steel','Steel');
#370=PROPERTY_DEFINITION('material property','material name',#660);
#371=PROPERTY_DEFINITION('material property','density of part',#660);
#372=AXIS2_PLACEMENT_3D('',#549,#423,#424);
#373=AXIS2_PLACEMENT_3D('',#550,#425,#426);
#374=AXIS2_PLACEMENT_3D('',#553,#427,#428);
#375=AXIS2_PLACEMENT_3D('',#555,#429,#430);
#376=AXIS2_PLACEMENT_3D('',#556,#431,#432);
#377=AXIS2_PLACEMENT_3D('',#557,#433,#434);
#378=AXIS2_PLACEMENT_3D('',#560,#435,#436);
#379=AXIS2_PLACEMENT_3D('',#562,#437,#438);
#380=AXIS2_PLACEMENT_3D('',#563,#439,#440);
#381=AXIS2_PLACEMENT_3D('',#564,#441,#442);
#382=AXIS2_PLACEMENT_3D('',#567,#445,#446);
#383=AXIS2_PLACEMENT_3D('',#570,#447,#448);
#384=AXIS2_PLACEMENT_3D('',#572,#449,#450);
#385=AXIS2_PLACEMENT_3D('',#573,#451,#452);
#386=AXIS2_PLACEMENT_3D('',#574,#453,#454);
#387=AXIS2_PLACEMENT_3D('',#577,#455,#456);
#388=AXIS2_PLACEMENT_3D('',#579,#457,#458);
#389=AXIS2_PLACEMENT_3D('',#580,#459,#460);
#390=AXIS2_PLACEMENT_3D('',#581,#461,#462);
#391=AXIS2_PLACEMENT_3D('',#584,#465,#466);
#392=AXIS2_PLACEMENT_3D('',#587,#467,#468);
#393=AXIS2_PLACEMENT_3D('',#590,#471,#472);
#394=AXIS2_PLACEMENT_3D('',#592,#473,#474);
#395=AXIS2_PLACEMENT_3D('',#593,#475,#476);
#396=AXIS2_PLACEMENT_3D('',#594,#477,#478);
#397=AXIS2_PLACEMENT_3D('',#597,#481,#482);
#398=AXIS2_PLACEMENT_3D('',#600,#485,#486);
#399=AXIS2_PLACEMENT_3D('',#603,#487,#488);
#400=AXIS2_PLACEMENT_3D('',#606,#491,#492);
#401=AXIS2_PLACEMENT_3D('',#608,#493,#494);
#402=AXIS2_PLACEMENT_3D('',#609,#495,#496);
#403=AXIS2_PLACEMENT_3D('',#610,#497,#498);
#404=AXIS2_PLACEMENT_3D('',#613,#499,#500);
#405=AXIS2_PLACEMENT_3D('',#615,#501,#502);
#406=AXIS2_PLACEMENT_3D('',#616,#503,#504);
#407=AXIS2_PLACEMENT_3D('',#617,#505,#506);
#408=AXIS2_PLACEMENT_3D('',#620,#509,#510);
#409=AXIS2_PLACEMENT_3D('',#623,#511,#512);
#410=AXIS2_PLACEMENT_3D('',#625,#513,#514);
#411=AXIS2_PLACEMENT_3D('',#626,#515,#516);
#412=AXIS2_PLACEMENT_3D('',#627,#517,#518);
#413=AXIS2_PLACEMENT_3D('',#630,#521,#522);
#414=AXIS2_PLACEMENT_3D('',#632,#524,#525);
#415=AXIS2_PLACEMENT_3D('',#634,#527,#528);
#416=AXIS2_PLACEMENT_3D('',#636,#530,#531);
#417=AXIS2_PLACEMENT_3D('',#637,#532,#533);
#418=AXIS2_PLACEMENT_3D('',#640,#536,#537);
#419=AXIS2_PLACEMENT_3D('',#642,#539,#540);
#420=AXIS2_PLACEMENT_3D('',#645,#543,#544);
#421=AXIS2_PLACEMENT_3D('',#646,#545,#546);
#422=AXIS2_PLACEMENT_3D('',#647,#547,#548);
#423=DIRECTION('axis',(0.,0.,1.));
#424=DIRECTION('refdir',(1.,0.,0.));
#425=DIRECTION('center_axis',(-0.816496580927726,0.408248290463864,-0.408248290463863));
#426=DIRECTION('ref_axis',(0.577350269189626,0.577350269189626,-0.577350269189625));
#427=DIRECTION('center_axis',(0.,0.,-1.));
#428=DIRECTION('ref_axis',(1.,0.,0.));
#429=DIRECTION('center_axis',(0.,1.,0.));
#430=DIRECTION('ref_axis',(0.,0.,-1.));
#431=DIRECTION('center_axis',(1.,0.,0.));
#432=DIRECTION('ref_axis',(0.,1.,0.));
#433=DIRECTION('center_axis',(-0.816496580927726,-0.408248290463863,0.408248290463862));
#434=DIRECTION('ref_axis',(-0.577350269189626,0.577350269189626,-0.577350269189625));
#435=DIRECTION('center_axis',(0.,0.,-1.));
#436=DIRECTION('ref_axis',(0.,1.,0.));
#437=DIRECTION('center_axis',(-1.,0.,0.));
#438=DIRECTION('ref_axis',(0.,0.,-1.));
#439=DIRECTION('center_axis',(0.,1.,0.));
#440=DIRECTION('ref_axis',(-1.,0.,0.));
#441=DIRECTION('center_axis',(1.,0.,0.));
#442=DIRECTION('ref_axis',(0.,0.707106781186548,-0.707106781186547));
#443=DIRECTION('',(-1.,0.,0.));
#444=DIRECTION('',(1.,0.,0.));
#445=DIRECTION('center_axis',(-0.816496580927726,-0.408248290463864,-0.408248290463862));
#446=DIRECTION('ref_axis',(0.577350269189625,-0.577350269189627,-0.577350269189625));
#447=DIRECTION('center_axis',(0.,0.,-1.));
#448=DIRECTION('ref_axis',(0.,-1.,0.));
#449=DIRECTION('center_axis',(1.,0.,0.));
#450=DIRECTION('ref_axis',(0.,0.,-1.));
#451=DIRECTION('center_axis',(0.,-1.,-4.44089209850063E-15));
#452=DIRECTION('ref_axis',(1.,0.,0.));
#453=DIRECTION('center_axis',(-0.816496580927729,0.40824829046386,0.408248290463861));
#454=DIRECTION('ref_axis',(-0.577350269189623,-0.577350269189627,-0.577350269189628));
#455=DIRECTION('center_axis',(0.,-1.,0.));
#456=DIRECTION('ref_axis',(0.,0.,-1.));
#457=DIRECTION('center_axis',(-1.,0.,-4.44089209850063E-15));
#458=DIRECTION('ref_axis',(0.,-1.,0.));
#459=DIRECTION('center_axis',(0.,0.,-1.));
#460=DIRECTION('ref_axis',(-1.,0.,0.));
#461=DIRECTION('center_axis',(-1.,0.,0.));
#462=DIRECTION('ref_axis',(0.,-0.707106781186549,-0.707106781186546));
#463=DIRECTION('',(1.,0.,0.));
#464=DIRECTION('',(-1.,0.,0.));
#465=DIRECTION('center_axis',(0.,0.,1.));
#466=DIRECTION('ref_axis',(-0.707106781186544,-0.707106781186551,0.));
#467=DIRECTION('center_axis',(0.,0.,-1.));
#468=DIRECTION('ref_axis',(0.,-1.,0.));
#469=DIRECTION('',(0.,0.,-1.));
#470=DIRECTION('',(0.,0.,1.));
#471=DIRECTION('center_axis',(-0.408248290463864,-0.408248290463859,-0.816496580927728));
#472=DIRECTION('ref_axis',(-0.577350269189627,-0.577350269189627,0.577350269189623));
#473=DIRECTION('center_axis',(-1.,0.,0.));
#474=DIRECTION('ref_axis',(0.,-0.70710678118655,0.707106781186545));
#475=DIRECTION('center_axis',(0.,-1.,0.));
#476=DIRECTION('ref_axis',(-0.70710678118655,0.,0.707106781186545));
#477=DIRECTION('center_axis',(0.,1.,0.));
#478=DIRECTION('ref_axis',(-0.707106781186549,0.,-0.707106781186546));
#479=DIRECTION('',(0.,-1.,0.));
#480=DIRECTION('',(0.,1.,0.));
#481=DIRECTION('center_axis',(0.,-1.,0.));
#482=DIRECTION('ref_axis',(0.707106781186548,0.,-0.707106781186547));
#483=DIRECTION('',(0.,1.,0.));
#484=DIRECTION('',(0.,-1.,0.));
#485=DIRECTION('center_axis',(0.,0.,1.));
#486=DIRECTION('ref_axis',(0.707106781186549,-0.707106781186546,0.));
#487=DIRECTION('center_axis',(0.,0.,-1.));
#488=DIRECTION('ref_axis',(1.,0.,0.));
#489=DIRECTION('',(0.,0.,-1.));
#490=DIRECTION('',(0.,0.,1.));
#491=DIRECTION('center_axis',(-0.816496580927727,-0.408248290463865,0.40824829046386));
#492=DIRECTION('ref_axis',(0.577350269189626,-0.577350269189628,0.577350269189624));
#493=DIRECTION('center_axis',(0.,-1.,0.));
#494=DIRECTION('ref_axis',(0.707106781186549,0.,0.707106781186546));
#495=DIRECTION('center_axis',(1.,0.,0.));
#496=DIRECTION('ref_axis',(0.,-0.70710678118655,0.707106781186545));
#497=DIRECTION('center_axis',(-0.816496580927726,-0.408248290463865,-0.408248290463861));
#498=DIRECTION('ref_axis',(-0.577350269189627,0.577350269189627,0.577350269189623));
#499=DIRECTION('center_axis',(0.,0.,1.));
#500=DIRECTION('ref_axis',(0.,1.,0.));
#501=DIRECTION('center_axis',(0.,1.,0.));
#502=DIRECTION('ref_axis',(-0.70710678118655,0.,0.707106781186545));
#503=DIRECTION('center_axis',(-1.,0.,0.));
#504=DIRECTION('ref_axis',(0.,0.707106781186549,0.707106781186546));
#505=DIRECTION('center_axis',(0.,0.,1.));
#506=DIRECTION('ref_axis',(-0.707106781186549,0.707106781186546,0.));
#507=DIRECTION('',(0.,0.,-1.));
#508=DIRECTION('',(0.,0.,1.));
#509=DIRECTION('center_axis',(-0.816496580927727,0.408248290463865,0.40824829046386));
#510=DIRECTION('ref_axis',(0.577350269189627,0.577350269189627,0.577350269189623));
#511=DIRECTION('center_axis',(0.,0.,1.));
#512=DIRECTION('ref_axis',(1.,0.,0.));
#513=DIRECTION('center_axis',(1.,0.,0.));
#514=DIRECTION('ref_axis',(0.,0.707106781186549,0.707106781186546));
#515=DIRECTION('center_axis',(0.,1.,0.));
#516=DIRECTION('ref_axis',(0.707106781186549,0.,0.707106781186546));
#517=DIRECTION('center_axis',(0.,0.,1.));
#518=DIRECTION('ref_axis',(0.707106781186547,0.707106781186547,0.));
#519=DIRECTION('',(0.,0.,-1.));
#520=DIRECTION('',(0.,0.,1.));
#521=DIRECTION('center_axis',(0.,-1.,0.));
#522=DIRECTION('ref_axis',(1.,0.,0.));
#523=DIRECTION('',(1.,0.,0.));
#524=DIRECTION('center_axis',(1.,0.,0.));
#525=DIRECTION('ref_axis',(0.,1.,0.));
#526=DIRECTION('',(0.,1.,0.));
#527=DIRECTION('center_axis',(0.,1.,0.));
#528=DIRECTION('ref_axis',(0.707106781186549,0.,0.707106781186546));
#529=DIRECTION('',(0.,-1.,0.));
#530=DIRECTION('center_axis',(0.,0.,1.));
#531=DIRECTION('ref_axis',(1.,0.,0.));
#532=DIRECTION('center_axis',(-1.,0.,0.));
#533=DIRECTION('ref_axis',(0.,0.707106781186549,0.707106781186546));
#534=DIRECTION('',(1.,0.,0.));
#535=DIRECTION('',(-1.,0.,0.));
#536=DIRECTION('center_axis',(1.,0.,0.));
#537=DIRECTION('ref_axis',(0.,-0.707106781186551,0.707106781186544));
#538=DIRECTION('',(-1.,0.,0.));
#539=DIRECTION('center_axis',(0.,-1.,0.));
#540=DIRECTION('ref_axis',(-0.707106781186551,0.,0.707106781186544));
#541=DIRECTION('',(0.,1.,0.));
#542=DIRECTION('',(0.,-1.,0.));
#543=DIRECTION('center_axis',(-1.,0.,0.));
#544=DIRECTION('ref_axis',(0.,-1.,0.));
#545=DIRECTION('center_axis',(0.,1.,0.));
#546=DIRECTION('ref_axis',(-1.,0.,0.));
#547=DIRECTION('center_axis',(0.,0.,1.));
#548=DIRECTION('ref_axis',(1.,0.,0.));
#549=CARTESIAN_POINT('',(0.,0.,0.));
#550=CARTESIAN_POINT('Origin',(1.4,1.4,0.1));
#551=CARTESIAN_POINT('',(1.5,1.4,0.1));
#552=CARTESIAN_POINT('',(1.4,1.5,0.1));
#553=CARTESIAN_POINT('Origin',(1.4,1.4,0.1));
#554=CARTESIAN_POINT('',(1.4,1.4,0.));
#555=CARTESIAN_POINT('Origin',(1.4,1.4,0.1));
#556=CARTESIAN_POINT('Origin',(1.4,1.4,0.1));
#557=CARTESIAN_POINT('Origin',(-2.4,1.4,0.1));
#558=CARTESIAN_POINT('',(-2.4,1.5,0.1));
#559=CARTESIAN_POINT('',(-2.5,1.4,0.1));
#560=CARTESIAN_POINT('Origin',(-2.4,1.4,0.1));
#561=CARTESIAN_POINT('',(-2.4,1.4,0.));
#562=CARTESIAN_POINT('Origin',(-2.4,1.4,0.1));
#563=CARTESIAN_POINT('Origin',(-2.4,1.4,0.1));
#564=CARTESIAN_POINT('Origin',(0.5,1.4,0.1));
#565=CARTESIAN_POINT('',(0.5,1.4,0.));
#566=CARTESIAN_POINT('',(0.5,1.5,0.1));
#567=CARTESIAN_POINT('Origin',(1.4,-2.4,0.1));
#568=CARTESIAN_POINT('',(1.4,-2.5,0.1));
#569=CARTESIAN_POINT('',(1.5,-2.4,0.1));
#570=CARTESIAN_POINT('Origin',(1.4,-2.4,0.1));
#571=CARTESIAN_POINT('',(1.4,-2.4,0.));
#572=CARTESIAN_POINT('Origin',(1.4,-2.4,0.1));
#573=CARTESIAN_POINT('Origin',(1.4,-2.4,0.1));
#574=CARTESIAN_POINT('Origin',(-2.4,-2.4,0.1));
#575=CARTESIAN_POINT('',(-2.4,-2.4,0.));
#576=CARTESIAN_POINT('',(-2.5,-2.4,0.1));
#577=CARTESIAN_POINT('Origin',(-2.4,-2.4,0.1));
#578=CARTESIAN_POINT('',(-2.4,-2.5,0.1));
#579=CARTESIAN_POINT('Origin',(-2.4,-2.4,0.1));
#580=CARTESIAN_POINT('Origin',(-2.4,-2.4,0.1));
#581=CARTESIAN_POINT('Origin',(-1.5,-2.4,0.1));
#582=CARTESIAN_POINT('',(-1.5,-2.4,0.));
#583=CARTESIAN_POINT('',(-1.5,-2.5,0.1));
#584=CARTESIAN_POINT('Origin',(-2.4,-2.4,0.));
#585=CARTESIAN_POINT('',(-2.4,-2.5,5.9));
#586=CARTESIAN_POINT('',(-2.5,-2.4,5.9));
#587=CARTESIAN_POINT('Origin',(-2.4,-2.4,5.9));
#588=CARTESIAN_POINT('',(-2.5,-2.4,0.));
#589=CARTESIAN_POINT('',(-2.4,-2.5,0.));
#590=CARTESIAN_POINT('Origin',(-2.4,-2.4,5.9));
#591=CARTESIAN_POINT('',(-2.4,-2.4,6.));
#592=CARTESIAN_POINT('Origin',(-2.4,-2.4,5.9));
#593=CARTESIAN_POINT('Origin',(-2.4,-2.4,5.9));
#594=CARTESIAN_POINT('Origin',(-2.4,0.5,0.1));
#595=CARTESIAN_POINT('',(-2.4,0.5,0.));
#596=CARTESIAN_POINT('',(-2.5,0.5,0.1));
#597=CARTESIAN_POINT('Origin',(1.4,-1.5,0.1));
#598=CARTESIAN_POINT('',(1.4,-1.5,0.));
#599=CARTESIAN_POINT('',(1.5,-1.5,0.1));
#600=CARTESIAN_POINT('Origin',(1.4,-2.4,0.));
#601=CARTESIAN_POINT('',(1.5,-2.4,5.9));
#602=CARTESIAN_POINT('',(1.4,-2.5,5.9));
#603=CARTESIAN_POINT('Origin',(1.4,-2.4,5.9));
#604=CARTESIAN_POINT('',(1.4,-2.5,0.));
#605=CARTESIAN_POINT('',(1.5,-2.4,0.));
#606=CARTESIAN_POINT('Origin',(1.4,-2.4,5.9));
#607=CARTESIAN_POINT('',(1.4,-2.4,6.));
#608=CARTESIAN_POINT('Origin',(1.4,-2.4,5.9));
#609=CARTESIAN_POINT('Origin',(1.4,-2.4,5.9));
#610=CARTESIAN_POINT('Origin',(-2.4,1.4,5.9));
#611=CARTESIAN_POINT('',(-2.4,1.5,5.9));
#612=CARTESIAN_POINT('',(-2.5,1.4,5.9));
#613=CARTESIAN_POINT('Origin',(-2.4,1.4,5.9));
#614=CARTESIAN_POINT('',(-2.4,1.4,6.));
#615=CARTESIAN_POINT('Origin',(-2.4,1.4,5.9));
#616=CARTESIAN_POINT('Origin',(-2.4,1.4,5.9));
#617=CARTESIAN_POINT('Origin',(-2.4,1.4,0.));
#618=CARTESIAN_POINT('',(-2.4,1.5,0.));
#619=CARTESIAN_POINT('',(-2.5,1.4,0.));
#620=CARTESIAN_POINT('Origin',(1.4,1.4,5.9));
#621=CARTESIAN_POINT('',(1.5,1.4,5.9));
#622=CARTESIAN_POINT('',(1.4,1.5,5.9));
#623=CARTESIAN_POINT('Origin',(1.4,1.4,5.9));
#624=CARTESIAN_POINT('',(1.4,1.4,6.));
#625=CARTESIAN_POINT('Origin',(1.4,1.4,5.9));
#626=CARTESIAN_POINT('Origin',(1.4,1.4,5.9));
#627=CARTESIAN_POINT('Origin',(1.4,1.4,0.));
#628=CARTESIAN_POINT('',(1.5,1.4,0.));
#629=CARTESIAN_POINT('',(1.4,1.5,0.));
#630=CARTESIAN_POINT('Origin',(-2.5,-2.5,0.));
#631=CARTESIAN_POINT('',(-1.5,-2.5,5.9));
#632=CARTESIAN_POINT('Origin',(1.5,-2.5,0.));
#633=CARTESIAN_POINT('',(1.5,-1.5,5.9));
#634=CARTESIAN_POINT('Origin',(1.4,-1.5,5.9));
#635=CARTESIAN_POINT('',(1.4,-1.5,6.));
#636=CARTESIAN_POINT('Origin',(-0.5,-0.5,0.));
#637=CARTESIAN_POINT('Origin',(0.5,1.4,5.9));
#638=CARTESIAN_POINT('',(0.5,1.4,6.));
#639=CARTESIAN_POINT('',(0.5,1.5,5.9));
#640=CARTESIAN_POINT('Origin',(-1.5,-2.4,5.9));
#641=CARTESIAN_POINT('',(-1.5,-2.4,6.));
#642=CARTESIAN_POINT('Origin',(-2.4,0.5,5.9));
#643=CARTESIAN_POINT('',(-2.4,0.5,6.));
#644=CARTESIAN_POINT('',(-2.5,0.5,5.9));
#645=CARTESIAN_POINT('Origin',(-2.5,1.5,0.));
#646=CARTESIAN_POINT('Origin',(1.5,1.5,0.));
#647=CARTESIAN_POINT('Origin',(-0.5,-0.5,6.));
#648=UNCERTAINTY_MEASURE_WITH_UNIT(LENGTH_MEASURE(0.001),#652,
'DISTANCE_ACCURACY_VALUE',
'Maximum model space distance between geometric entities at asserted c
onnectivities');
#649=UNCERTAINTY_MEASURE_WITH_UNIT(LENGTH_MEASURE(0.001),#652,
'DISTANCE_ACCURACY_VALUE',
'Maximum model space distance between geometric entities at asserted c
onnectivities');
#650=(
GEOMETRIC_REPRESENTATION_CONTEXT(3)
GLOBAL_UNCERTAINTY_ASSIGNED_CONTEXT((#648))
GLOBAL_UNIT_ASSIGNED_CONTEXT((#652,#654,#655))
REPRESENTATION_CONTEXT('','3D')
);
#651=(
GEOMETRIC_REPRESENTATION_CONTEXT(3)
GLOBAL_UNCERTAINTY_ASSIGNED_CONTEXT((#649))
GLOBAL_UNIT_ASSIGNED_CONTEXT((#652,#654,#655))
REPRESENTATION_CONTEXT('','3D')
);
#652=(
LENGTH_UNIT()
NAMED_UNIT(*)
SI_UNIT(.CENTI.,.METRE.)
);
#653=(
LENGTH_UNIT()
NAMED_UNIT(*)
SI_UNIT($,.METRE.)
);
#654=(
NAMED_UNIT(*)
PLANE_ANGLE_UNIT()
SI_UNIT($,.RADIAN.)
);
#655=(
NAMED_UNIT(*)
SI_UNIT($,.STERADIAN.)
SOLID_ANGLE_UNIT()
);
#656=SHAPE_DEFINITION_REPRESENTATION(#657,#658);
#657=PRODUCT_DEFINITION_SHAPE('',$,#660);
#658=SHAPE_REPRESENTATION('',(#372),#650);
#659=PRODUCT_DEFINITION_CONTEXT('part definition',#664,'design');
#660=PRODUCT_DEFINITION('2026-08-18-16-05-34-324','Red Box',#661,#659);
#661=PRODUCT_DEFINITION_FORMATION('',$,#666);
#662=PRODUCT_RELATED_PRODUCT_CATEGORY('Red Box','Red Box',(#666));
#663=APPLICATION_PROTOCOL_DEFINITION('international standard',
'automotive_design',2009,#664);
#664=APPLICATION_CONTEXT(
'Core Data for Automotive Mechanical Design Process');
#665=PRODUCT_CONTEXT('part definition',#664,'mechanical');
#666=PRODUCT('2026-08-18-16-05-34-324','Red Box',$,(#665));
#667=PRESENTATION_STYLE_ASSIGNMENT((#668));
#668=SURFACE_STYLE_USAGE(.BOTH.,#669);
#669=SURFACE_SIDE_STYLE('',(#670));
#670=SURFACE_STYLE_FILL_AREA(#671);
#671=FILL_AREA_STYLE('Steel - Satin',(#672));
#672=FILL_AREA_STYLE_COLOUR('Steel - Satin',#673);
#673=COLOUR_RGB('Steel - Satin',0.627450980392157,0.627450980392157,0.627450980392157);
ENDSEC;
END-ISO-10303-21;
